<?xml version="1.0" encoding="UTF-8" standalone="no"?>
<!-- Created with Inkscape (http://www.inkscape.org/) -->

<svg
   version="1.1"
   id="svg1"
   width="5333.3335"
   height="3596.6001"
   viewBox="0 0 5333.3335 3596.6001"
   sodipodi:docname="vecteezy_a-mountain-range-with-brown-and-white-mountains_69000386.eps"
   xmlns:inkscape="http://www.inkscape.org/namespaces/inkscape"
   xmlns:sodipodi="http://sodipodi.sourceforge.net/DTD/sodipodi-0.dtd"
   xmlns="http://www.w3.org/2000/svg"
   xmlns:svg="http://www.w3.org/2000/svg">
  <defs
     id="defs1" />
  <sodipodi:namedview
     id="namedview1"
     pagecolor="#ffffff"
     bordercolor="#000000"
     borderopacity="0.25"
     inkscape:showpageshadow="2"
     inkscape:pageopacity="0.0"
     inkscape:pagecheckerboard="0"
     inkscape:deskcolor="#d1d1d1">
    <inkscape:page
       x="0"
       y="0"
       inkscape:label="1"
       id="page1"
       width="5333.3335"
       height="3596.6001"
       margin="0"
       bleed="0" />
  </sodipodi:namedview>
  <g
     id="g1"
     inkscape:groupmode="layer"
     inkscape:label="1">
    <g
       id="group-R5">
      <path
         id="path2"
         d="m 36788.6,25215.9 -697.2,-380 c -1785.8,-1054.7 -2983.9,-2440.7 -3594.3,-4158.2 -889.7,-250.1 -1921,-746.4 -3094,-1488.9 -97.3,-25.8 -348.2,91.4 -752.7,351.5 L 25886.3,21449 c -264.4,142.8 -573.8,225.3 -928,247.7 -443.5,-47.9 -977.1,-275.8 -1600.5,-683.5 -1153,-837.3 -2072.9,-1628.1 -2759.7,-2372.4 -1329.2,-135.3 -2224.2,-135.4 -2685.2,-0.1 -935.9,343 -1994.4,893 -3175.4,1649.9 -228,101.9 -467.3,160.3 -718,175.3 -189.9,11.3 -443,-52.9 -759.2,-192.5 l -2595.8,-1499.3 c -172.3,-81.9 -440.2,-131.2 -803.92,-147.7 -163.33,0 -414.01,172.8 -752.04,518.5 -170.34,137.7 -763.39,864.1 -1779.14,2179.4 -457.96,326.2 -1051.12,360.7 -1779.48,103.5 C 286.52,18830.5 -3352.85,17193.1 -5368.19,16515.4 L -11651.8,7537.1 C -10581.2,7138 -8025,6720.9 -3983.2,6285.9 -1787.5,5969.7 5586.02,5397.9 18137.4,4570.3 30640.3,4061.6 38979,4252.1 43153.7,5142 l 687.8,5829.8 c 1963.7,4962.6 2874.9,7743.3 2733.6,8342.2 -115,251.5 -294.7,419 -539.3,502.4 -2903.7,722.1 -4748.8,1393.2 -5535.2,2013.4 -803.4,514.3 -1802.9,1496.9 -2998.5,2948 -258.8,226.5 -496.6,372.5 -713.5,438.1"
         style="fill:#dda14a;fill-opacity:1;fill-rule:nonzero;stroke:none"
         transform="matrix(0.13333333,0,0,-0.13333333,0,3596.6)" />
      <path
         id="path3"
         d="m 39763.3,20682 -130.5,-6.8 c -429.7,-40.4 -1123.2,-317.8 -2080.4,-832.1 -1266.5,-744.5 -2699,-1678.4 -4297.4,-2801.5 l -2837.8,-179.1 c -1854.1,-482 -3019.1,-749.7 -3494.9,-803.3 -1006.2,-27.7 -2236.1,215.2 -3689.7,728.6 -945,410.3 -2538.2,1400.7 -4779.4,2971.1 -301.9,166.7 -496.9,242.1 -584.9,226.3 l -3580.8,-2523 c -861.8,-406 -2183.2,-909.7 -3964.2,-1511.1 -394.77,-73.1 -701.44,-76.9 -920.03,-11.6 -1464.01,658.2 -2671.12,1122.5 -3621.33,1392.9 -931.8,91.3 -1579.97,22 -1944.52,-208 l -5518.01,-2488.2 c -653.01,-282 -1585.28,-586.6 -2796.83,-913.9 L -8664.02,3530.6 c 1865.34,-285.7 4046.85,-564.4 6544.55,-836.1 C 4678.07,2027.4 9136.01,1635.4 11254.3,1518.8 18146.8,1017.1 26303.9,543.398 35725.8,97.6016 c 2477.8,-109.5 4257.3,-126.8985 5338.6,-52 1564.7,88.6994 2410.1,310.2964 2536.2,665.0004 L 43259.9,16717.4 c -465.9,1896.2 -1631.5,3217.7 -3496.6,3964.6"
         style="fill:#c98624;fill-opacity:1;fill-rule:nonzero;stroke:none"
         transform="matrix(0.13333333,0,0,-0.13333333,0,3596.6)" />
      <path
         id="path4"
         d="m 29653.8,18416.4 -90.8,-1.5 c -172.2,-6.1 -287.8,-30.5 -346.7,-73.1 l -6799.2,-4402.2 c -101.9,-56.5 -832.5,0.5 -2191.6,171.3 -483.2,-3.5 -954.4,-37 -1413.7,-100.5 -434.9,-75.2 -1512.4,-452.7 -3232.6,-1132.4 -139.4,-15.9 -315.2,57 -527.5,218.9 -1963.2,2026.9 -3516.7,3366.5 -4660.5,4018.6 -1085.34,607.9 -1922.88,719.9 -2512.66,336.1 -189.07,-110.9 -385.67,-266.1 -589.83,-465.7 C 4866,14037 3365.19,12357.2 2786.28,11946.4 1610.04,11213.5 -751.664,10077.1 -4298.84,8537 L -2209.72,-544.699 C 11803.8,-1524.2 24345.6,-1970.8 35415.8,-1884.5 c 5020.4,144.2 7915.3,893.102 8684.6,2246.801 70.4,175.199 104.5,362.5 102.3,561.801 L 42639.6,12974.8 c -221.6,735.4 -794.7,1307.5 -1719.2,1716.1 -953.4,486.6 -3125,1074.8 -6514.8,1764.7 -484.5,190.6 -1210.2,678.4 -2177,1463.4 -137.8,73.6 -288,136.8 -450.8,189.9 -727.4,181.2 -1435.3,283.7 -2124,307.5"
         style="fill:#a4641d;fill-opacity:1;fill-rule:nonzero;stroke:none"
         transform="matrix(0.13333333,0,0,-0.13333333,0,3596.6)" />
      <path
         id="path5"
         d="m 19771.5,15902.7 -226.4,-4.9 c -606.2,-26.4 -1231.4,-158.1 -1875.6,-395.3 L 11654,12190.4 c -1182.6,-543 -2146.58,-847 -2891.99,-911.8 -605.71,-79.2 -1245.13,-70.1 -1918.29,27.5 -3744.46,791.5 -5941.665,1173.5 -6591.595,1146 -670.523,70.5 -2797.105,30.3 -6379.745,-120.5 L -14014,2178.3 c 5692.61,560.2 11288.03,776.1 16786.24,647.7 71.3,26.4 2900.48,-105.4 8487.56,-395.5 10088.5,-588.8 19162.7,-1160 27222.5,-1713.699 886,-44.399 1585.7,-56 2099.2,-34.899 1524.6,49.496 2456.8,297.297 2796.7,743.398 227.6,1785.8 261.9,3311.8 102.8,4577.9 -10.6,1095.7 -511.5,2272.3 -1502.7,3529.7 -188.9,131.1 -426.5,189.2 -712.8,174.4 -183.3,32.2 -1784.4,-172.6 -4803.3,-614.5 -650.1,-63.4 -1167.1,-45.8 -1551.1,52.9 l -4951.2,2897.1 c -252.9,142.5 -1171.8,277.1 -2756.8,403.9 -1392.1,1312.5 -2450.3,2097.6 -3174.5,2355.4 -1477.9,664.1 -2896.9,1030.9 -4257.1,1100.6"
         style="fill:#7b481b;fill-opacity:1;fill-rule:nonzero;stroke:none"
         transform="matrix(0.13333333,0,0,-0.13333333,0,3596.6)" />
      <path
         id="path6"
         d="m 32549.5,11893.8 -330.5,-9 c -954.5,-47.8 -2494.5,-286.7 -4619.9,-716.7 l -4558.8,-1399.7 -3120,1704.9 c -423.7,168.9 -840.2,214 -1249.4,135.1 L 12188,9394.5 c -329.5,-70.3 -721.4,-117.9 -1175.8,-142.9 -1977.26,84.6 -3083.65,75.6 -3319.15,-27 L 4100.54,7638.3 C 798.375,6701.3 -1417.88,5976.5 -2548.22,5464 l -6681.1,-10313.4 c 14873.42,-421.3 23392.82,-571.8 25558.22,-451.7 1632.4,19.1 5699.1,229.4 12200.2,630.7 2410.7,181 4563.1,381.6 6457.2,601.7 5682.4,660.4 9040.1,1497 10073.1,2509.8 1150.6,1885.9 1252.5,3408.4 305.8,4567.4 -211.2,250.5 -687,554.2 -1427.6,911.1 L 38285.5,6268 34912.6,11089.1 c -518.3,475.7 -1306,744 -2363.1,804.7"
         style="fill:#6c3f19;fill-opacity:1;fill-rule:nonzero;stroke:none"
         transform="matrix(0.13333333,0,0,-0.13333333,0,3596.6)" />
      <path
         id="path7"
         d="m 14334.9,10592.6 -25.5,-0.4 c -431.8,-32 -1050.4,-273.6 -1856.1,-725 C 10563.3,8599.8 7589.66,6876 3532.46,4695.8 1826.99,4091.6 -187.27,3636.7 -2510.34,3331.2 l -7699.26,-7100.3 c 1088.98,184.3 2183.03,251.5 3282.2,201.7 4124.15,-339.8 8377.42,-610.1 12759.81,-811.1 3214.16,-189.7 8893.89,-332.3 17039.19,-427.9 12256.4,378.5 19092.9,931.1 20509.6,1658 972.9,1781.1 823.5,4184.5 -448.4,7210.3 -894.3,1752.5 -2349.1,3428.7 -4364.5,5028.6 l -4193,-1659.7 c -283.6,-100.6 -711.1,-206.4 -1282.3,-317.3 -321.6,-112.4 -1616.3,29.3 -3884.1,425.2 -3212.4,-878.3 -5270.9,-1272.5 -6175.7,-1182.6 -643.5,6 -1337.9,168 -2083.2,486.3 l -3975.3,2648.9 c -1474.5,811.2 -2354.4,1178.3 -2639.8,1101.3"
         style="fill:#5e3817;fill-opacity:1;fill-rule:nonzero;stroke:none"
         transform="matrix(0.13333333,0,0,-0.13333333,0,3596.6)" />
      <path
         id="path8"
         d="m 29488.8,8729.9 -64.9,-2.4 c -178.6,-12.3 -401.5,-73.9 -668.8,-184.8 l -2522.2,-1210.5 -5165.4,-3128 c -366.2,-205.9 -738.2,-340.4 -1116.1,-403.3 -2422.7,-302.3 -4635.6,-452 -6638.7,-449.2 -351,43 -684.2,125 -999.6,246.1 C 11188,4140.4 10199.6,4533.2 9347.98,4776 8743.65,4963.5 8041.23,5074.2 7240.72,5108.2 6533.33,5197 4976.92,4917.5 2571.49,4269.8 1581.03,4038 -387.195,3300.9 -3333.17,2058.6 -4466.73,1833 -5276.01,1730.9 -5761.01,1752.3 l -3555.73,-4602 c 1067.37,130 2522.97,152.7 4366.77,68.1 L 7753.83,-3913 c 1232.1,-81.2 2447.37,-144.4 3645.97,-189.5 3141.3,-135.3 6921.2,-109.2 11339.8,78.4 7711,303.3 13535.2,568.6 17472.8,796 2190.8,173.5 3581.6,480.2 4172.4,920.2 -242.8,2557.4 -961.9,4592.8 -2157.3,6106.1 -170.7,117 -534.3,186.4 -1090.8,208.3 -3858.7,-65.1 -5814,-114.2 -5866,-147.3 -496.1,12 -842,54.4 -1037.7,127.1 L 30376.1,8266 c -332.9,331 -628.7,485.6 -887.3,463.9"
         style="fill:#4b2d15;fill-opacity:1;fill-rule:nonzero;stroke:none"
         transform="matrix(0.13333333,0,0,-0.13333333,0,3596.6)" />
      <path
         id="path9"
         d="m 13929.1,5749.4 -19.2,-0.1 C 13337,5750.2 12590.2,5546.1 11669.6,5136.8 7832.86,3037.2 5602.8,1870.7 4979.46,1637.4 4827.98,1591.5 4768.21,1579.1 4800.15,1600.2 3420.06,1130.2 1466.08,511.301 -1061.79,-256.398 -2451.88,-669.199 -3703.52,-1016.3 -4816.68,-1297.6 l 2188.14,-3617.9 c 1136.81,88.1 2179.595,146.7 3128.36,175.6 1066.44,35.9 5163.45,123.9 12290.98,264.2 10222.7,437.6 18423.5,723.8 24602.5,858.6 1514.2,79.3 2711.2,198.8 3591,358.4 642.1,188.7 999.1,331.3 1071.1,427.7 1214.8,1187.2 1671.1,2628.5 1368.9,4323.8 -127.3,685.3 -710.8,1593.5 -1750.4,2724.6 -745.2,840.3 -1357.8,1321.6 -1837.9,1444 -183.1,21.5 -388.6,-6.7 -616.8,-84.7 L 36779.1,4620 c -1544.1,-212.4 -3683,-732.7 -6416.7,-1560.9 -284.9,-50.5 -721.3,-86.5 -1309.1,-108.2 -647.6,-21.2 -1327.3,-28.8 -2039,-22.8 34.9,-11.3 15.1,-16.4 -59.2,-15.3 -672.4,21.8 -2106.9,114.9 -4303.5,279.2 l -3606.5,104.9 c -235.4,51.6 -426.2,119 -572.3,202.4 -1564.3,1091.8 -2473.9,1691.2 -2728.7,1798.2 -599,274.9 -1204,425.5 -1815,451.9"
         style="fill:#382515;fill-opacity:1;fill-rule:nonzero;stroke:none"
         transform="matrix(0.13333333,0,0,-0.13333333,0,3596.6)" />
      <path
         id="path10"
         d="m 25778.2,3634.4 -132.2,-3.7 c -355.1,-19.7 -731.9,-118.5 -1130.2,-296.2 l -4143,-2165.2 c -768.3,-362.398 -1209.3,-526.398 -1323.1,-491.999 -275.3,2.801 -448.9,42.398 -520.6,118.801 -944,1092.498 -1574.6,1713.198 -1891.8,1862.198 -699.4,354.1 -1428.2,428.7 -2186.4,224 -315.4,-82 -696.6,-252.5 -1143.6,-511.7 C 10916.1,700.898 9495.57,-226.699 9045.71,-412.199 8624.79,-557.297 8252.97,-661.102 7930.25,-723.898 5941.8,-912.898 4454.43,-1165.6 3468.12,-1482.1 c -1377.79,-451.4 -2045.4,-855.4 -2002.82,-1212 -52.8,-743.6 2146.04,-1580.2 6596.52,-2510 1650.9,-339 4611.08,-818.1 8880.58,-1437.4 1807.4,-274.6 3976.8,-531.2 6508.3,-769.7 l 19162.4,4482.1 C 40807.3,-1342.5 38746.4,70.8984 36430.4,1311 c -164,64 -399.8,87.9 -707.4,71.8 -763.5,-162.2 -1375.3,-254.1 -1835.3,-275.6 -398.2,-3.3 -848.7,48.3 -1351.4,154.9 -738.7,157.5 -1568.1,399 -2488.2,724.3 -639.1,196.8 -1930.9,734.4 -3875.6,1612.9 -157.5,25.9 -288.9,37.6 -394.3,35.1"
         style="fill:#2a1e14;fill-opacity:1;fill-rule:nonzero;stroke:none"
         transform="matrix(0.13333333,0,0,-0.13333333,0,3596.6)" />
    </g>
  </g>
</svg>
