<svg xmlns="http://www.w3.org/2000/svg" style="display: none;">
  <!-- TypeScript -->
  <symbol id="typescript" viewBox="0 0 24 24">
    <path d="M1.125 0C.502 0 0 .502 0 1.125v21.75C0 23.498.502 24 1.125 24h21.75c.623 0 1.125-.502 1.125-1.125V1.125C24 .502 23.498 0 22.875 0zm17.363 9.75c.612 0 1.154.037 1.627.111a6.38 6.38 0 0 1 1.306.34v2.458a3.95 3.95 0 0 0-.643-.361 5.093 5.093 0 0 0-.717-.26 5.453 5.453 0 0 0-1.426-.2c-.3 0-.573.028-.819.086a2.1 2.1 0 0 0-.623.242c-.17.104-.3.229-.393.374a.888.888 0 0 0-.14.49c0 .196.053.373.156.529.104.156.252.304.443.444s.423.276.696.41c.273.135.582.274.926.416.47.197.892.407 1.266.628.374.222.695.473.963.753.268.279.472.598.614.957.142.359.214.776.214 1.253 0 .657-.125 1.21-.373 1.656a3.033 3.033 0 0 1-1.012 1.085 4.38 4.38 0 0 1-1.487.596c-.566.12-1.163.18-1.79.18a9.916 9.916 0 0 1-1.84-.164 5.544 5.544 0 0 1-1.512-.493v-2.63a5.033 5.033 0 0 0 3.237 1.2c.333 0 .624-.03.872-.09.249-.06.456-.144.623-.25.166-.108.29-.234.373-.38a1.023 1.023 0 0 0-.074-1.089 2.12 2.12 0 0 0-.537-.5 5.597 5.597 0 0 0-.807-.444 27.72 27.72 0 0 0-1.007-.436c-.918-.383-1.602-.852-2.053-1.405-.45-.553-.676-1.222-.676-2.005 0-.614.123-1.141.369-1.582.246-.441.58-.804 1.004-1.089a4.494 4.494 0 0 1 1.47-.629 7.536 7.536 0 0 1 1.77-.201zm-15.113.188h9.563v2.166H9.506v9.646H6.789v-9.646H3.375z"/>
  </symbol>

  <!-- JavaScript -->
  <symbol id="javascript" viewBox="0 0 24 24">
    <path d="M0 0h24v24H0V0zm22.034 18.276c-.175-1.095-.888-2.015-3.003-2.873-.736-.345-1.554-.585-1.797-1.14-.091-.33-.105-.51-.046-.705.15-.646.915-.84 1.515-.66.39.12.75.42.976.9 1.034-.676 1.034-.676 1.755-1.125-.27-.42-.404-.601-.586-.78-.63-.705-1.469-1.065-2.834-1.034l-.705.089c-.676.165-1.32.525-1.71 1.005-1.14 1.291-.811 3.541.569 4.471 1.365 1.02 3.361 1.244 3.616 2.205.24 1.17-.87 1.545-1.966 1.41-.811-.18-1.26-.586-1.755-1.336l-1.83 1.051c.21.48.45.689.81 1.109 1.74 1.756 6.09 1.666 6.871-1.004.029-.09.24-.705.074-1.65l.046.067zm-8.983-7.245h-2.248c0 1.938-.009 3.864-.009 5.805 0 1.232.063 2.363-.138 2.711-.33.689-1.18.601-1.566.48-.396-.196-.597-.466-.83-.855-.063-.105-.11-.196-.127-.196l-1.825 1.125c.305.63.75 1.172 1.324 1.517.855.51 2.004.675 3.207.405.783-.226 1.458-.691 1.811-1.411.51-.93.402-2.07.397-3.346.012-2.054 0-4.109 0-6.179l.004-.056z"/>
  </symbol>

  <!-- React -->
  <symbol id="react" viewBox="0 0 24 24">
    <path d="M14.23 12.004a2.236 2.236 0 0 1-2.235 2.236 2.236 2.236 0 0 1-2.236-2.236 2.236 2.236 0 0 1 2.235-2.236 2.236 2.236 0 0 1 2.236 2.236zm2.648-10.69c-1.346 0-3.107.96-4.888 2.622-1.78-1.653-3.542-2.602-4.887-2.602-.41 0-.783.093-1.106.278-1.375.793-1.683 3.264-.973 6.365C1.98 8.917 0 10.42 0 12.004c0 1.59 1.99 3.097 5.043 4.03-.704 3.113-.39 5.588.988 6.38.32.187.69.275 1.102.275 1.345 0 3.107-.96 4.888-2.624 1.78 1.654 3.542 2.603 4.887 2.603.41 0 .783-.09 1.106-.275 1.374-.792 1.683-3.263.973-6.365C22.02 15.096 24 13.59 24 12.004c0-1.59-1.99-3.097-5.043-4.032.704-3.11.39-5.587-.988-6.38-.318-.184-.688-.277-1.092-.278zm-.005 1.09v.006c.225 0 .406.044.558.127.666.382.955 1.835.73 3.704-.054.46-.142.945-.25 1.44-.96-.236-2.006-.417-3.107-.534-.66-.905-1.345-1.727-2.035-2.447 1.592-1.48 3.087-2.292 4.105-2.295zm-9.77.02c1.012 0 2.514.808 4.11 2.28-.686.72-1.37 1.537-2.02 2.442-1.107.117-2.154.298-3.113.538-.112-.49-.195-.964-.254-1.42-.23-1.868.054-3.32.714-3.707.19-.09.4-.127.563-.132zm4.882 3.05c.455.468.91.992 1.36 1.564-.44-.02-.89-.034-1.345-.034-.46 0-.915.01-1.36.034.44-.572.895-1.096 1.345-1.565zM12 8.1c.74 0 1.477.034 2.202.093.406.582.802 1.203 1.183 1.86.372.64.71 1.29 1.018 1.946-.308.655-.646 1.31-1.013 1.95-.38.66-.773 1.288-1.18 1.87-.728.063-1.466.098-2.21.098-.74 0-1.477-.035-2.202-.093-.406-.582-.802-1.204-1.183-1.86-.372-.64-.71-1.29-1.018-1.946.303-.657.646-1.313 1.013-1.954.38-.66.773-1.286 1.18-1.868.728-.064 1.466-.098 2.21-.098zm-3.635.254c-.24.377-.48.763-.704 1.16-.225.39-.435.782-.635 1.174-.265-.656-.49-1.31-.676-1.947.64-.15 1.315-.283 2.015-.386zm7.26 0c.695.103 1.365.23 2.006.387-.18.632-.405 1.282-.66 1.933-.2-.39-.41-.783-.64-1.174-.225-.392-.465-.774-.705-1.146zm3.063.675c.484.15.944.317 1.375.498 1.732.74 2.852 1.708 2.852 2.476-.005.768-1.125 1.74-2.857 2.475-.42.18-.88.342-1.355.493-.28-.958-.646-1.956-1.1-2.98.45-1.017.81-2.01 1.085-2.964zm-13.395.004c.278.96.645 1.957 1.1 2.98-.45 1.017-.812 2.01-1.086 2.964-.484-.15-.944-.318-1.37-.5-1.732-.737-2.852-1.706-2.852-2.474 0-.768 1.12-1.742 2.852-2.476.42-.18.88-.342 1.356-.494zm11.678 4.28c.265.657.49 1.312.676 1.948-.64.157-1.316.29-2.016.39.24-.375.48-.762.705-1.158.225-.39.435-.788.636-1.18zm-9.945.02c.2.392.41.783.64 1.175.23.39.465.772.705 1.143-.695-.102-1.365-.23-2.006-.386.18-.63.406-1.282.66-1.933zM17.92 16.32c.112.493.2.968.254 1.423.23 1.868-.054 3.32-.714 3.708-.147.09-.338.128-.563.128-1.012 0-2.514-.807-4.11-2.28.686-.72 1.37-1.536 2.02-2.44 1.107-.118 2.154-.3 3.113-.54zm-11.83.01c.96.234 2.006.415 3.107.532.66.905 1.345 1.727 2.035 2.446-1.595 1.483-3.092 2.295-4.11 2.295-.22-.005-.406-.05-.553-.132-.666-.38-.955-1.834-.73-3.703.054-.46.142-.944.25-1.438zm4.56.64c.44.02.89.034 1.345.034.46 0 .915-.01 1.36-.034-.44.572-.895 1.095-1.345 1.565-.455-.47-.91-.993-1.36-1.565z"/>
  </symbol>

  <!-- Next.js -->
  <symbol id="nextdotjs" viewBox="0 0 24 24">
    <path d="M11.572 0c-.176 0-.31.001-.358.007a19.76 19.76 0 0 1-.364.033C7.443.346 4.25 2.185 2.228 5.012a11.875 11.875 0 0 0-2.119 5.243c-.096.659-.108.854-.108 1.747s.012 1.089.108 1.748c.652 4.506 3.86 8.292 8.209 9.695.779.251 1.6.422 2.534.525.363.04 1.935.04 2.299 0 1.611-.178 2.977-.577 4.323-1.264.207-.106.247-.134.219-.158-.02-.013-.9-1.193-1.955-2.62l-1.919-2.592-2.404-3.558a338.739 338.739 0 0 0-2.422-3.556c-.009-.002-.018 1.579-.023 3.51-.007 3.38-.01 3.515-.052 3.595a.426.426 0 0 1-.206.214c-.075.037-.14.044-.495.044H7.81l-.108-.068a.438.438 0 0 1-.157-.171l-.05-.106.006-4.703.007-4.705.072-.092a.645.645 0 0 1 .174-.143c.096-.047.134-.051.54-.051.478 0 .558.018.682.154.035.038 1.337 1.999 2.895 4.361a10760.433 10760.433 0 0 0 4.735 7.17l1.9 2.879.096-.063a12.317 12.317 0 0 0 2.466-2.163 11.944 11.944 0 0 0 2.824-6.134c.096-.66.108-.854.108-1.748 0-.893-.012-1.088-.108-1.747-.652-4.506-3.859-8.292-8.208-9.695a12.597 12.597 0 0 0-2.499-.523A33.119 33.119 0 0 0 11.572 0zm4.069 7.217c.347 0 .408.005.486.047a.473.473 0 0 1 .237.277c.018.06.023 1.365.018 4.304l-.006 4.218-.744-1.14-.746-1.14v-3.066c0-1.982.01-3.097.023-3.15a.478.478 0 0 1 .233-.296c.096-.05.13-.054.5-.054z"/>
  </symbol>

  <!-- Redux -->
  <symbol id="redux" viewBox="0 0 24 24">
    <path d="M16.634 16.504c.309-.224.581-.522.805-.88-.443-.275-.915-.38-1.395-.38-2.497 0-4.164 2.213-4.164 4.354 0 .656.141 1.322.444 1.893.986-.516 1.743-1.328 2.154-2.38-.408-.194-.743-.503-1.007-.921-.264-.42-.41-.91-.41-1.418 0-.248.035-.484.098-.705.125-.437.369-.822.685-1.118.316-.296.698-.492 1.09-.58a2.29 2.29 0 0 1 .386-.032c.204 0 .4.026.585.077.36-.668.56-1.457.56-2.29 0-.207-.016-.41-.045-.609a5.8 5.8 0 0 0-2.598.601c-1.348.623-2.42 1.673-3.058 2.99a5.69 5.69 0 0 0-.499 2.343c0 1.297.447 2.49 1.196 3.436a5.6 5.6 0 0 0 3.058 1.99c.008-.017.012-.035.012-.053 0-.274-.098-.534-.27-.736a1.12 1.12 0 0 0-.792-.332c-.051 0-.102.004-.152.012zm-2.045-2.88c.331-.563.496-1.195.496-1.896 0-.054-.002-.108-.005-.162a4.08 4.08 0 0 0-2.258.96c-.422.376-.755.837-.982 1.358-.227.521-.347 1.089-.347 1.68 0 .089.004.177.012.265.633-.147 1.218-.415 1.733-.798.515-.383.948-.861 1.278-1.408h.073zm-6.666-1.53c-1.178 0-2.146.927-2.205 2.098-.002.042-.003.084-.003.126 0 1.18.928 2.147 2.1 2.205.042.002.084.003.127.003 1.18 0 2.146-.928 2.204-2.1.002-.04.003-.08.003-.12 0-1.18-.927-2.146-2.098-2.204-.042-.002-.085-.003-.128-.003zm10.662 3.608c-1.178 0-2.146.928-2.205 2.1-.002.04-.003.08-.003.12 0 1.18.928 2.146 2.1 2.204.04.002.08.003.12.003 1.18 0 2.146-.928 2.205-2.1.002-.042.003-.084.003-.126 0-1.18-.928-2.147-2.1-2.205-.04-.002-.08-.003-.12-.003zM12 2C6.48 2 2 6.48 2 12s4.48 10 10 10 10-4.48 10-10S17.52 2 12 2zm0 18c-4.41 0-8-3.59-8-8s3.59-8 8-8 8 3.59 8 8-3.59 8-8 8z"/>
  </symbol>

  <!-- Vite -->
  <symbol id="vite" viewBox="0 0 24 24">
    <path d="M8.286 10.578c.437-3.572 2.79-5.723 3.834-6.462.176-.127.35-.234.52-.318a1.67 1.67 0 0 0-.177-.132c-.743-.49-2.234-.726-3.582.253-1.238.9-2.145 2.768-2.35 4.926-.234 2.418.396 4.522 1.51 5.593.396.385.868.63 1.368.725a6.37 6.37 0 0 1-.733-2.026c-.45-1.077-.636-2.25-.39-2.559zm6.394 1.454c-.566-.046-1.07.146-1.47.486-.356.302-.62.713-.756 1.188a2.51 2.51 0 0 0-.073.792c.024.447.163.896.408 1.29.24.386.574.703.957.917.383.213.81.313 1.235.29.426-.022.84-.162 1.196-.408.355-.246.636-.59.818-.997.18-.406.253-.853.21-1.297a2.68 2.68 0 0 0-.525-1.387 2.55 2.55 0 0 0-1.228-.83 2.47 2.47 0 0 0-.772-.044zm-5.55 6.695a5.35 5.35 0 0 1-1.55-1.15c-1.23-1.4-1.82-3.56-1.44-5.86.17-.994.51-1.96.99-2.82a6.13 6.13 0 0 1 2.1-2.19c.89-.58 1.93-.83 2.97-.71 1.04.12 2.01.62 2.73 1.42a5.49 5.49 0 0 1 1.23 2.35c.15.57.2 1.16.15 1.75-.06.87-.29 1.71-.68 2.47a5.3 5.3 0 0 1-1.79 1.92c-.74.48-1.6.77-2.48.83-.88.06-1.76-.12-2.56-.53l-.38-.19-.15-.08-.07-.04-.03-.02-.01-.01-.33-.18z"/>
  </symbol>

  <!-- Jest -->
  <symbol id="jest" viewBox="0 0 24 24">
    <path d="M22.251 11.82a3.117 3.117 0 0 0-2.328-2.705c.036-.214.055-.434.055-.657 0-2.17-1.758-3.93-3.927-3.93-.497 0-.977.092-1.425.263C14.908 3.35 13.35 2.15 11.526 2.15c-2.175 0-3.97 1.59-4.303 3.67a3.94 3.94 0 0 0-1.175-.182c-2.17 0-3.93 1.758-3.93 3.93 0 .213.018.423.05.628C1.01 10.842 0 12.228 0 13.845c0 2.17 1.758 3.93 3.93 3.93a3.89 3.89 0 0 0 1.956-.53l2.007 4.89a.577.577 0 0 0 1.066 0l1.867-4.55a4.01 4.01 0 0 0 1.68.372c.49 0 .96-.09 1.396-.254l1.868 4.55a.577.577 0 0 0 1.066 0l2.007-4.89a3.892 3.892 0 0 0 1.955.53c2.172 0 3.93-1.759 3.93-3.93 0-1.617-1.01-3.003-2.472-3.614z"/>
  </symbol>

  <!-- Git -->
  <symbol id="git" viewBox="0 0 24 24">
    <path d="M23.546 10.93L13.067.452c-.604-.603-1.582-.603-2.188 0L8.708 2.627l2.76 2.76c.645-.215 1.379-.07 1.889.441.516.515.658 1.258.438 1.9l2.652 2.66c.645-.223 1.387-.078 1.9.435.721.72.721 1.884 0 2.604-.719.719-1.881.719-2.6 0-.539-.541-.674-1.337-.404-1.996L12.86 8.955v6.525c.176.086.342.203.488.348.713.721.713 1.883 0 2.6-.719.721-1.889.721-2.609 0-.719-.719-.719-1.879 0-2.598.182-.18.387-.316.605-.406V8.835c-.217-.091-.424-.222-.6-.401-.545-.545-.678-1.342-.396-2.009L7.611 3.527 4.647 6.491c-.603.605-.603 1.585 0 2.189l10.48 10.477c.604.604 1.582.604 2.186 0l6.232-6.227c.605-.603.605-1.582 0-2.187z"/>
  </symbol>

  <!-- GitHub -->
  <symbol id="github" viewBox="0 0 24 24">
    <path d="M12 .297c-6.63 0-12 5.373-12 12 0 5.303 3.438 9.8 8.205 11.385.6.113.82-.258.82-.577 0-.285-.01-1.04-.015-2.04-3.338.724-4.042-1.61-4.042-1.61C4.422 18.07 3.633 17.7 3.633 17.7c-1.087-.744.084-.729.084-.729 1.205.084 1.838 1.236 1.838 1.236 1.07 1.835 2.809 1.305 3.495.998.108-.776.417-1.305.76-1.605-2.665-.3-5.466-1.332-5.466-5.93 0-1.31.465-2.38 1.235-3.22-.135-.303-.54-1.523.105-3.176 0 0 1.005-.322 3.3 1.23.96-.267 1.98-.399 3-.405 1.02.006 2.04.138 3 .405 2.28-1.552 3.285-1.23 3.285-1.23.645 1.653.24 2.873.12 3.176.765.84 1.23 1.91 1.23 3.22 0 4.61-2.805 5.625-5.475 5.92.42.36.81 1.096.81 2.22 0 1.606-.015 2.896-.015 3.286 0 .315.21.69.825.57C20.565 22.092 24 17.592 24 12.297c0-6.627-5.373-12-12-12"/>
  </symbol>

  <!-- Contentful -->
  <symbol id="contentful" viewBox="0 0 24 24">
    <path d="M14.585 13.287a2.473 2.473 0 0 1 1.575 2.352v3.424c0 2.706-2.23 4.876-4.934 4.876-1.56 0-2.972-.727-3.896-1.852a4.717 4.717 0 0 0 3.896 2.063c2.633 0 4.768-2.123 4.768-4.758V15.64c0-.746-.327-1.413-.845-1.872l.436-.48zm-7.17-2.575c.827 0 1.573.333 2.115.872a2.893 2.893 0 0 0-2.115-.872c-1.598 0-2.893 1.291-2.893 2.884v3.424c0 1.593 1.295 2.884 2.893 2.884.783 0 1.494-.308 2.017-.81a2.887 2.887 0 0 1-2.017.796c-1.598 0-2.893-1.291-2.893-2.884V13.596c0-1.593 1.295-2.884 2.893-2.884zm9.585-4.578c-1.56 0-2.972.727-3.896 1.852a4.717 4.717 0 0 1 3.896-2.063c2.633 0 4.768 2.123 4.768 4.758v1.752c0 .746-.327 1.413-.845 1.872l.436.48a2.473 2.473 0 0 0 1.575-2.352V7.562c0-2.706-2.23-4.876-4.934-4.876zm-2.575 5.337c0-1.593-1.295-2.884-2.893-2.884-.783 0-1.494.308-2.017.81a2.887 2.887 0 0 1 2.017-.796c1.598 0 2.893 1.291 2.893 2.884v3.424c0 1.593-1.295 2.884-2.893 2.884-.827 0-1.573-.333-2.115-.872a2.893 2.893 0 0 0 2.115.872c1.598 0 2.893-1.291 2.893-2.884V7.471z"/>
  </symbol>

  <!-- HTML5 -->
  <symbol id="html5" viewBox="0 0 24 24">
    <path d="M1.5 0h21l-1.91 21.563L11.977 24l-8.564-2.438L1.5 0zm7.031 9.75l-.232-2.718 10.059.003.23-2.622L5.412 4.41l.698 8.01h9.126l-.326 3.426-2.91.804-2.955-.81-.188-2.11H6.248l.33 4.171L12 19.351l5.379-1.443.744-8.157H8.531z"/>
  </symbol>

  <!-- CSS3 -->
  <symbol id="css3" viewBox="0 0 24 24">
    <path d="M1.5 0h21l-1.91 21.563L11.977 24l-8.565-2.438L1.5 0zm17.09 4.413L5.41 4.41l.213 2.622 10.125.002-.255 2.716h-6.64l.24 2.573h6.182l-.366 3.523-2.91.804-2.956-.81-.188-2.11h-2.61l.29 3.855L12 19.288l5.373-1.53L18.59 4.414z"/>
  </symbol>
</svg>
